<svg width="18.000000" height="18.000000" viewBox="0 0 18 18" fill="none" xmlns="http://www.w3.org/2000/svg" xmlns:xlink="http://www.w3.org/1999/xlink">
	<desc>
			Created with Pixso.
	</desc>
	<defs>
		<clipPath id="clip2_366">
			<rect id="accumulator 1" rx="-0.500000" width="17.000000" height="17.000000" transform="translate(0.500000 0.500000)" fill="white" fill-opacity="0"/>
		</clipPath>
	</defs>
	<rect id="accumulator 1" rx="-0.500000" width="17.000000" height="17.000000" transform="translate(0.500000 0.500000)" fill="#FFFFFF" fill-opacity="0"/>
	<g clip-path="url(#clip2_366)">
		<path id="Vector" d="M16.5 3.75L16.5 3C16.5 2.58 16.16 2.25 15.75 2.25L13.5 2.25C13.08 2.25 12.75 2.58 12.75 3L12.75 3.74L12.53 3.74L12.21 3.43C11.94 3.16 11.55 3 11.15 3L6.84 3C6.44 3 6.05 3.16 5.78 3.43L5.46 3.74L5.25 3.74L5.25 3C5.25 2.58 4.91 2.25 4.5 2.25L2.25 2.25C1.83 2.25 1.5 2.58 1.5 3L1.5 3.74C0.67 3.75 0 4.42 0 5.25L0 14.25C0 15.07 0.67 15.75 1.5 15.75L16.5 15.75C17.32 15.75 18 15.07 18 14.25L18 5.25C18 4.42 17.32 3.75 16.5 3.75ZM4.12 7.5L2.62 7.5C2.41 7.5 2.25 7.33 2.25 7.12C2.25 6.91 2.41 6.75 2.62 6.75L4.12 6.75C4.33 6.75 4.5 6.91 4.5 7.12C4.5 7.33 4.33 7.5 4.12 7.5ZM15.37 7.5L15 7.5L15 7.87C15 8.08 14.83 8.25 14.62 8.25C14.41 8.25 14.24 8.08 14.24 7.87L14.24 7.5L13.87 7.5C13.66 7.5 13.49 7.33 13.49 7.12C13.49 6.91 13.66 6.74 13.87 6.74L14.24 6.74L14.24 6.37C14.24 6.16 14.41 5.99 14.62 5.99C14.83 5.99 15 6.16 15 6.37L15 6.75L15.37 6.75C15.58 6.75 15.75 6.91 15.75 7.12C15.75 7.33 15.58 7.5 15.37 7.5Z" fill="#5D6C7B" fill-opacity="1.000000" fill-rule="nonzero"/>
	</g>
</svg>
