<svg width="41.000000" height="25.000000" viewBox="0 0 41 25" fill="none" xmlns="http://www.w3.org/2000/svg" xmlns:xlink="http://www.w3.org/1999/xlink">
	<desc>
			Created with Pixso.
	</desc>
	<defs/>
	<rect id="Rectangle 173" rx="5.000000" width="41.000000" height="25.000000" fill="#EE685F" fill-opacity="1.000000"/>
	<path id="ХИТ" d="M14.8 17L16.28 17L13.41 12.55L16.08 8.43L14.7 8.43L12.67 11.7L10.65 8.43L9.21 8.43L11.87 12.54L9.03 17L10.41 17L12.62 13.42L14.8 17ZM18.66 8.43L17.47 8.43L17.47 17L18.95 17L23.45 10.03L23.5 10.03Q23.49 10.19 23.47 10.61Q23.44 11.03 23.43 11.55Q23.41 12.06 23.41 12.5L23.41 17L24.59 17L24.59 8.43L23.11 8.43L18.62 15.35L18.57 15.35Q18.58 15.18 18.61 14.77Q18.63 14.36 18.64 13.86Q18.66 13.37 18.66 12.96L18.66 8.43ZM28.45 17L29.74 17L29.74 9.54L32.31 9.54L32.31 8.43L25.88 8.43L25.88 9.54L28.45 9.54L28.45 17Z" fill="#FFFFFF" fill-opacity="1.000000" fill-rule="evenodd"/>
</svg>
