<svg width="63" height="25" viewBox="0 0 63 25" fill="none" xmlns="http://www.w3.org/2000/svg">
<rect width="63" height="25" rx="5" fill="#75D14A"/>
<path d="M8.83984 13.148V11.84H14.8278V13.148H8.83984ZM13.9158 8.6H15.3318V17H13.9158V8.6ZM8.27584 8.6H9.69184V17H8.27584V8.6ZM16.6775 14.24C16.6775 13.672 16.8055 13.172 17.0615 12.74C17.3255 12.308 17.6815 11.972 18.1295 11.732C18.5775 11.484 19.0855 11.36 19.6535 11.36C20.2215 11.36 20.7255 11.484 21.1655 11.732C21.6135 11.972 21.9695 12.308 22.2335 12.74C22.4975 13.172 22.6295 13.672 22.6295 14.24C22.6295 14.8 22.4975 15.3 22.2335 15.74C21.9695 16.172 21.6135 16.512 21.1655 16.76C20.7255 17 20.2215 17.12 19.6535 17.12C19.0855 17.12 18.5775 17 18.1295 16.76C17.6815 16.512 17.3255 16.172 17.0615 15.74C16.8055 15.3 16.6775 14.8 16.6775 14.24ZM18.0095 14.24C18.0095 14.584 18.0815 14.888 18.2255 15.152C18.3695 15.408 18.5655 15.612 18.8135 15.764C19.0615 15.908 19.3415 15.98 19.6535 15.98C19.9575 15.98 20.2335 15.908 20.4815 15.764C20.7375 15.612 20.9375 15.408 21.0815 15.152C21.2255 14.888 21.2975 14.584 21.2975 14.24C21.2975 13.896 21.2255 13.592 21.0815 13.328C20.9375 13.064 20.7375 12.86 20.4815 12.716C20.2335 12.572 19.9575 12.5 19.6535 12.5C19.3415 12.5 19.0615 12.572 18.8135 12.716C18.5655 12.86 18.3695 13.064 18.2255 13.328C18.0815 13.592 18.0095 13.896 18.0095 14.24ZM24.6873 14.12H26.4393C26.8233 14.12 27.1673 14.16 27.4713 14.24C27.7753 14.32 28.0153 14.46 28.1913 14.66C28.3673 14.86 28.4553 15.14 28.4553 15.5C28.4553 15.916 28.3153 16.272 28.0353 16.568C27.7633 16.856 27.3113 17 26.6793 17H24.6873V16.04H26.2833C26.6033 16.04 26.8353 15.972 26.9793 15.836C27.1233 15.7 27.1953 15.54 27.1953 15.356C27.1953 15.26 27.1753 15.172 27.1353 15.092C27.0953 15.012 27.0393 14.94 26.9673 14.876C26.9033 14.812 26.8113 14.764 26.6913 14.732C26.5793 14.7 26.4433 14.684 26.2833 14.684H24.6873V14.12ZM24.6873 14.36V13.736H26.1633C26.2833 13.736 26.3913 13.72 26.4873 13.688C26.5913 13.656 26.6753 13.608 26.7393 13.544C26.8033 13.48 26.8553 13.408 26.8953 13.328C26.9353 13.248 26.9553 13.164 26.9553 13.076C26.9553 12.892 26.8833 12.74 26.7393 12.62C26.6033 12.5 26.4113 12.44 26.1633 12.44H24.6873V11.48H26.3193C26.6633 11.48 26.9753 11.532 27.2553 11.636C27.5433 11.732 27.7753 11.892 27.9513 12.116C28.1273 12.332 28.2153 12.62 28.2153 12.98C28.2153 13.292 28.1273 13.552 27.9513 13.76C27.7753 13.96 27.5433 14.112 27.2553 14.216C26.9753 14.312 26.6633 14.36 26.3193 14.36H24.6873ZM23.9313 11.48H25.2033V17H23.9313V11.48ZM34.6523 12.68L29.6963 17.42L29.7563 15.8L34.7123 11.06L34.6523 12.68ZM30.9683 11.48V15.956L29.6963 17.42V11.48H30.9683ZM34.7123 11.06V17H33.4403V12.524L34.7123 11.06ZM36.9858 14.624V13.556H41.2098V14.624H36.9858ZM40.5138 11.48H41.7858V17H40.5138V11.48ZM36.4218 11.48H37.6938V17H36.4218V11.48ZM43.3933 11.48H44.6653V17H43.3933V11.48ZM46.6933 11.48H48.2773L45.9013 13.76L48.5173 17H46.9453L44.3053 13.76L46.6933 11.48ZM50.1987 15.368C50.1987 15.536 50.2427 15.676 50.3307 15.788C50.4267 15.9 50.5507 15.988 50.7027 16.052C50.8547 16.108 51.0267 16.136 51.2187 16.136C51.4987 16.136 51.7507 16.092 51.9747 16.004C52.1987 15.916 52.3747 15.776 52.5027 15.584C52.6307 15.392 52.6947 15.136 52.6947 14.816L52.8867 15.44C52.8867 15.792 52.7947 16.096 52.6107 16.352C52.4267 16.6 52.1787 16.792 51.8667 16.928C51.5547 17.056 51.2067 17.12 50.8227 17.12C50.4627 17.12 50.1347 17.056 49.8387 16.928C49.5507 16.8 49.3187 16.612 49.1427 16.364C48.9747 16.108 48.8907 15.792 48.8907 15.416C48.8907 15.04 48.9867 14.716 49.1787 14.444C49.3707 14.172 49.6427 13.964 49.9947 13.82C50.3547 13.676 50.7747 13.604 51.2547 13.604C51.5747 13.604 51.8587 13.644 52.1067 13.724C52.3627 13.804 52.5747 13.896 52.7427 14C52.9107 14.104 53.0267 14.196 53.0907 14.276V14.96C52.8427 14.776 52.5907 14.644 52.3347 14.564C52.0787 14.476 51.7827 14.432 51.4467 14.432C51.1747 14.432 50.9427 14.472 50.7507 14.552C50.5667 14.624 50.4267 14.732 50.3307 14.876C50.2427 15.012 50.1987 15.176 50.1987 15.368ZM49.9107 12.932L49.3947 12.008C49.6427 11.856 49.9587 11.708 50.3427 11.564C50.7267 11.42 51.1667 11.348 51.6627 11.348C52.1187 11.348 52.5187 11.416 52.8627 11.552C53.2067 11.688 53.4747 11.884 53.6667 12.14C53.8667 12.388 53.9667 12.696 53.9667 13.064V17H52.6947V13.208C52.6947 12.952 52.5867 12.756 52.3707 12.62C52.1627 12.476 51.9067 12.404 51.6027 12.404C51.3387 12.404 51.0947 12.436 50.8707 12.5C50.6467 12.564 50.4507 12.64 50.2827 12.728C50.1227 12.808 49.9987 12.876 49.9107 12.932Z" fill="white"/>
</svg>
