<svg width="18.000000" height="18.000000" viewBox="0 0 18 18" fill="none" xmlns="http://www.w3.org/2000/svg" xmlns:xlink="http://www.w3.org/1999/xlink">
	<desc>
			Created with Pixso.
	</desc>
	<defs>
		<clipPath id="clip2_387">
			<rect id="power 1" rx="-0.500000" width="17.000000" height="17.000000" transform="translate(0.500000 0.500000)" fill="white" fill-opacity="0"/>
		</clipPath>
	</defs>
	<rect id="power 1" rx="-0.500000" width="17.000000" height="17.000000" transform="translate(0.500000 0.500000)" fill="#FFFFFF" fill-opacity="0"/>
	<g clip-path="url(#clip2_387)">
		<path id="Vector" d="M14.22 0.26C14.14 0.1 13.97 0 13.79 0L6.72 0C6.51 0 6.32 0.14 6.26 0.34L3.74 8.8C3.69 8.95 3.72 9.1 3.81 9.23C3.9 9.35 4.05 9.42 4.2 9.42L8.16 9.42L6.57 17.42C6.52 17.65 6.65 17.88 6.87 17.96C6.93 17.98 6.98 18 7.04 18C7.21 18 7.37 17.91 7.46 17.75L13.68 6.82C13.77 6.67 13.77 6.49 13.68 6.34C13.6 6.19 13.44 6.1 13.26 6.1L10.46 6.1L14.19 0.76C14.29 0.61 14.3 0.42 14.22 0.26Z" fill="#5D6C7B" fill-opacity="1.000000" fill-rule="nonzero"/>
	</g>
</svg>
