<svg width="40.000000" height="40.000000" viewBox="0 0 40 40" fill="none" xmlns="http://www.w3.org/2000/svg" xmlns:xlink="http://www.w3.org/1999/xlink">
	<desc>
			Created with Pixso.
	</desc>
	<defs>
		<clipPath id="clip1_14920">
			<rect id="scooter-svgrepo-com 1" rx="-0.500000" width="15.000000" height="15.000000" transform="translate(12.500000 12.500000)" fill="white" fill-opacity="0"/>
		</clipPath>
	</defs>
	<g opacity="0.200000">
		<rect id="Rectangle 185" rx="5.000000" width="40.000000" height="40.000000" fill="#FFFFFF" fill-opacity="1.000000"/>
	</g>
	<rect id="scooter-svgrepo-com 1" rx="-0.500000" width="15.000000" height="15.000000" transform="translate(12.500000 12.500000)" fill="#FFFFFF" fill-opacity="0"/>
	<g clip-path="url(#clip1_14920)">
		<path id="Vector" d="M24.94 22.84L22.31 13.86L24.08 13.67C24.44 13.63 24.71 13.3 24.67 12.93C24.63 12.57 24.3 12.3 23.93 12.34L18.84 12.89C18.47 12.93 18.2 13.26 18.25 13.63C18.28 13.97 18.57 14.22 18.91 14.22C18.93 14.22 18.95 14.22 18.98 14.22L20.97 14L23.64 23.18C23.11 23.49 22.72 23.99 22.54 24.58L17.45 24.58C17.15 23.58 16.22 22.84 15.11 22.84C13.76 22.84 12.67 23.92 12.67 25.25C12.67 26.58 13.76 27.65 15.11 27.65C16.22 27.65 17.15 26.92 17.45 25.91L22.54 25.91C22.83 26.92 23.77 27.65 24.88 27.65C26.23 27.65 27.32 26.58 27.32 25.25C27.32 23.94 26.26 22.87 24.94 22.84Z" fill="#FFFFFF" fill-opacity="1.000000" fill-rule="nonzero"/>
	</g>
</svg>
