<svg width="18.000000" height="18.000000" viewBox="0 0 18 18" fill="none" xmlns="http://www.w3.org/2000/svg" xmlns:xlink="http://www.w3.org/1999/xlink">
	<desc>
			Created with Pixso.
	</desc>
	<defs>
		<clipPath id="clip2_377">
			<rect id="speedometer 1" rx="-0.500000" width="17.000000" height="17.000000" transform="translate(0.500000 0.500000)" fill="white" fill-opacity="0"/>
		</clipPath>
	</defs>
	<rect id="speedometer 1" rx="-0.500000" width="17.000000" height="17.000000" transform="translate(0.500000 0.500000)" fill="#FFFFFF" fill-opacity="0"/>
	<g clip-path="url(#clip2_377)">
		<path id="Vector" d="M8.47 4.56L8.47 1.23C6.43 1.35 4.53 2.14 3.01 3.49L5.36 5.85C6.25 5.11 7.32 4.66 8.47 4.56Z" fill="#5D6C7B" fill-opacity="1.000000" fill-rule="nonzero"/>
		<path id="Vector" d="M4.61 6.59L2.26 4.24C0.9 5.76 0.11 7.67 0 9.7L3.32 9.7C3.43 8.55 3.88 7.48 4.61 6.59Z" fill="#5D6C7B" fill-opacity="1.000000" fill-rule="nonzero"/>
		<path id="Vector" d="M14.67 9.7L17.99 9.7C17.88 7.67 17.09 5.76 15.73 4.24L13.38 6.59C14.11 7.48 14.56 8.55 14.67 9.7Z" fill="#5D6C7B" fill-opacity="1.000000" fill-rule="nonzero"/>
		<path id="Vector" d="M14.67 10.76C14.49 12.67 13.44 13.84 13.02 14.26C12.82 14.46 12.82 14.8 13.02 15L14.62 16.6C14.72 16.71 14.86 16.76 15 16.76C15.13 16.76 15.27 16.71 15.37 16.6C16.95 15.03 17.87 12.96 18 10.76L14.67 10.76Z" fill="#5D6C7B" fill-opacity="1.000000" fill-rule="nonzero"/>
		<path id="Vector" d="M3.27 13.78C3.41 13.55 3.64 13.2 3.9 12.79C3.63 12.24 3.4 11.57 3.32 10.76L0 10.76C0.12 12.96 1.04 15.03 2.62 16.6C2.72 16.71 2.86 16.76 2.99 16.76C3.13 16.76 3.27 16.71 3.37 16.6L3.92 16.06C3.76 15.98 3.61 15.88 3.48 15.75C2.95 15.22 2.87 14.41 3.27 13.78Z" fill="#5D6C7B" fill-opacity="1.000000" fill-rule="nonzero"/>
		<path id="Vector" d="M9.52 1.23L9.52 4.56C10.67 4.66 11.74 5.11 12.63 5.85L14.98 3.49C13.46 2.14 11.56 1.35 9.52 1.23Z" fill="#5D6C7B" fill-opacity="1.000000" fill-rule="nonzero"/>
		<path id="Vector" d="M7.82 9.06C7.01 9.88 4.45 13.89 4.16 14.35C4.02 14.56 4.05 14.83 4.23 15C4.4 15.18 4.68 15.21 4.88 15.08C5.34 14.79 9.35 12.22 10.17 11.41C10.81 10.76 10.81 9.71 10.17 9.07C9.52 8.42 8.47 8.42 7.82 9.06Z" fill="#5D6C7B" fill-opacity="1.000000" fill-rule="nonzero"/>
	</g>
</svg>
