<svg width="18.000000" height="18.000000" viewBox="0 0 18 18" fill="none" xmlns="http://www.w3.org/2000/svg" xmlns:xlink="http://www.w3.org/1999/xlink">
	<desc>
			Created with Pixso.
	</desc>
	<defs>
		<clipPath id="clip2_383">
			<rect id="timer 1" rx="-0.500000" width="17.000000" height="17.000000" transform="translate(0.500000 0.500000)" fill="white" fill-opacity="0"/>
		</clipPath>
	</defs>
	<rect id="timer 1" rx="-0.500000" width="17.000000" height="17.000000" transform="translate(0.500000 0.500000)" fill="#FFFFFF" fill-opacity="0"/>
	<g clip-path="url(#clip2_383)">
		<path id="Vector" d="M14.45 5.35L15.53 4.28L14.46 3.21L13.31 4.37C12.26 3.62 11.03 3.16 9.75 3.03L9.75 1.5L11.25 1.5L11.25 0L6.75 0L6.75 1.5L8.25 1.5L8.25 3.03C6.96 3.16 5.73 3.62 4.68 4.37L3.53 3.21L2.46 4.28L3.54 5.35C2.54 6.42 1.86 7.75 1.61 9.2C1.35 10.64 1.53 12.13 2.11 13.47C2.69 14.82 3.65 15.96 4.87 16.77C6.1 17.57 7.53 18 9 18C10.46 18 11.89 17.57 13.12 16.77C14.34 15.96 15.3 14.82 15.88 13.47C16.46 12.13 16.64 10.64 16.38 9.2C16.13 7.75 15.45 6.42 14.45 5.35ZM9 16.5C7.81 16.5 6.65 16.14 5.66 15.48C4.67 14.82 3.91 13.89 3.45 12.79C3 11.69 2.88 10.49 3.11 9.32C3.34 8.16 3.91 7.09 4.75 6.25C5.59 5.41 6.66 4.84 7.82 4.61C8.99 4.38 10.19 4.5 11.29 4.95C12.39 5.41 13.32 6.17 13.98 7.16C14.64 8.15 15 9.31 15 10.5C14.99 12.09 14.36 13.61 13.24 14.74C12.11 15.86 10.59 16.49 9 16.5Z" fill="#5D6C7B" fill-opacity="1.000000" fill-rule="nonzero"/>
		<path id="Vector" d="M9 6L9 10.5L4.5 10.5C4.5 11.39 4.76 12.26 5.25 13C5.75 13.74 6.45 14.31 7.27 14.65C8.1 14.99 9 15.08 9.87 14.91C10.75 14.73 11.55 14.31 12.18 13.68C12.81 13.05 13.23 12.25 13.41 11.37C13.58 10.5 13.49 9.6 13.15 8.77C12.81 7.95 12.24 7.25 11.5 6.75C10.76 6.26 9.89 6 9 6Z" fill="#5D6C7B" fill-opacity="1.000000" fill-rule="nonzero"/>
	</g>
</svg>
